<svg style = "fill: rgb(157, 155, 155)" xmlns="http://www.w3.org/2000/svg" width="24" height="24" viewBox="0 0 24 24" fill="white">
      <path d="M12 2.163c3.204 0 3.584.012 4.849.07 1.366.062 2.633.333 3.608 1.308.975.975 1.246 2.242 1.308 3.608.058 1.265.07 1.645.07 4.849s-.012 3.584-.07 4.849c-.062 1.366-.333 2.633-1.308 3.608-.975.975-2.242 1.246-3.608 1.308-1.265.058-1.645.07-4.849.07s-3.584-.012-4.849-.07c-1.366-.062-2.633-.333-3.608-1.308-.975-.975-1.246-2.242-1.308-3.608-.058-1.265-.07-1.645-.07-4.849s.012-3.584.07-4.849c.062-1.366.333-2.633 1.308-3.608.975-.975 2.242-1.246 3.608-1.308 1.265-.058 1.645-.07 4.849-.07m0-2.163c-3.259 0-3.67.014-4.947.072-1.619.073-3.063.334-4.208 1.479-1.146 1.146-1.406 2.59-1.479 4.208-.058 1.277-.072 1.688-.072 4.947s.014 3.67.072 4.947c.073 1.619.334 3.063 1.479 4.208 1.146 1.146 2.59 1.406 4.208 1.479 1.277.058 1.688.072 4.947.072s3.67-.014 4.947-.072c1.619-.073 3.063-.334 4.208-1.479 1.146-1.146 1.406-2.59 1.479-4.208.058-1.277.072-1.688.072-4.947s-.014-3.67-.072-4.947c-.073-1.619-.334-3.063-1.479-4.208-1.146-1.146-2.59-1.406-4.208-1.479-1.277-.058-1.688-.072-4.947-.072zm0 5.838c-3.411 0-6.188 2.777-6.188 6.188s2.777 6.188 6.188 6.188 6.188-2.777 6.188-6.188-2.777-6.188-6.188-6.188zm0 10.125c-2.17 0-3.938-1.768-3.938-3.938s1.768-3.938 3.938-3.938 3.938 1.768 3.938 3.938-1.768 3.938-3.938 3.938zm6.406-11.844c-.796 0-1.438.642-1.438 1.438s.642 1.438 1.438 1.438 1.438-.642 1.438-1.438-.642-1.438-1.438-1.438z"/>
    </svg>