<svg style = "fill: rgb(157, 155, 155)" xmlns="http://www.w3.org/2000/svg" width="24" height="24" viewBox="0 0 24 24" fill="white">
      <path d="M24 4.557c-.883.392-1.83.656-2.828.775 1.017-.609 1.798-1.574 2.165-2.723-.951.564-2.005.974-3.127 1.195-.897-.957-2.178-1.555-3.594-1.555-2.723 0-4.932 2.208-4.932 4.932 0 .386.043.763.127 1.124-4.1-.205-7.725-2.17-10.155-5.157-.425.729-.666 1.577-.666 2.482 0 1.71.87 3.217 2.188 4.099-.807-.026-1.566-.248-2.229-.617v.062c0 2.385 1.698 4.374 3.95 4.827-.414.113-.851.173-1.3.173-.318 0-.63-.031-.934-.089.631 1.965 2.463 3.393 4.633 3.434-1.698 1.33-3.834 2.123-6.156 2.123-.4 0-.79-.023-1.174-.068 2.197 1.411 4.807 2.234 7.617 2.234 9.142 0 14.307-7.721 14.307-14.422 0-.22-.004-.439-.014-.657.984-.71 1.837-1.597 2.513-2.607z"/>
    </svg>